<svg xmlns="http://www.w3.org/2000/svg" viewBox="0 0 32 32" width="32" height="32">
	<style>
		tspan { white-space:pre }
		.shp0 { fill: #333333 } 
		.shp1 { fill: #f6f6f6 } 
	</style>
	<path id="Layer 1" class="shp0" d="M16.06 31.25C7.66 31.25 0.88 24.46 0.88 16.06C0.88 7.66 7.66 0.88 16.06 0.88C24.46 0.88 31.25 7.66 31.25 16.06C31.25 24.46 24.46 31.25 16.06 31.25Z" />
	<path id="Shape 1" class="shp1" d="M27.2 15.53L19.99 14.47L16.77 7.85C16.58 7.45 16.35 7.25 16.06 7.25C15.78 7.25 15.54 7.45 15.36 7.85L12.13 14.47L4.93 15.53C4.39 15.62 4.13 15.84 4.13 16.2C4.13 16.41 4.24 16.64 4.48 16.9L9.71 22.06L8.47 29.34C8.45 29.47 8.44 29.57 8.44 29.63C8.44 29.83 8.49 30 8.59 30.14C8.69 30.28 8.85 30.35 9.05 30.35C9.22 30.35 9.41 30.3 9.62 30.18L16.06 26.74L22.5 30.18C22.71 30.3 22.9 30.35 23.08 30.35C23.27 30.35 23.42 30.28 23.52 30.14C23.62 30 23.67 29.83 23.67 29.63C23.67 29.5 23.66 29.4 23.65 29.34L22.42 22.06L27.63 16.9C27.88 16.65 28 16.42 28 16.2C28 15.84 27.73 15.62 27.2 15.53L27.2 15.53Z" />
</svg>